<svg width="20" height="23" viewBox="0 0 20 23" fill="none" xmlns="http://www.w3.org/2000/svg">
<path d="M10 22.8584C10.7578 22.8584 11.4845 22.5574 12.0203 22.0216C12.5561 21.4857 12.8571 20.759 12.8571 20.0012H7.14286C7.14286 20.759 7.44388 21.4857 7.97969 22.0216C8.51551 22.5574 9.24224 22.8584 10 22.8584ZM11.4214 1.57125C11.4414 1.37261 11.4195 1.172 11.3571 0.982354C11.2947 0.792707 11.1933 0.618235 11.0594 0.47019C10.9255 0.322145 10.762 0.203814 10.5795 0.122828C10.3971 0.0418421 10.1996 0 10 0C9.80036 0 9.60295 0.0418421 9.42048 0.122828C9.238 0.203814 9.07453 0.322145 8.9406 0.47019C8.80667 0.618235 8.70526 0.792707 8.64291 0.982354C8.58055 1.172 8.55863 1.37261 8.57857 1.57125C6.96364 1.89918 5.51176 2.77541 4.46902 4.05144C3.42628 5.32746 2.85681 6.92479 2.85714 8.57268C2.85714 10.1413 2.14286 17.1441 0 18.5727H20C17.8571 17.1441 17.1429 10.1413 17.1429 8.57268C17.1429 5.11554 14.6857 2.22982 11.4214 1.57125Z" fill="#B7B7B9"/>
</svg>
