<svg width="16" height="25" viewBox="0 0 16 25" fill="none" xmlns="http://www.w3.org/2000/svg">
<path d="M15.2707 14.1219L3.54606 24.4624C2.16656 25.6827 8.26963e-07 24.6909 1.06983e-06 22.8389L3.78181e-06 2.15791C-0.000348689 1.74342 0.117823 1.33761 0.340367 0.989082C0.562911 0.640555 0.880395 0.364081 1.2548 0.192768C1.6292 0.0214579 2.04465 -0.0374295 2.4514 0.0231593C2.85815 0.0837482 3.23895 0.261246 3.5482 0.534396L15.2686 10.8749C15.4983 11.0772 15.6824 11.3268 15.8086 11.6068C15.9347 11.8869 16 12.1908 16 12.4984C16 12.8059 15.9347 13.1099 15.8086 13.3899C15.6824 13.67 15.4983 13.9195 15.2686 14.1219L15.2707 14.1219Z" fill="#FFFBEB"/>
</svg>
