<svg width="16" height="25" viewBox="0 0 16 25" fill="none" xmlns="http://www.w3.org/2000/svg">
<path d="M0.729273 14.1219L12.4539 24.4624C13.8334 25.6827 16 24.6909 16 22.8389L16 2.15791C16.0003 1.74342 15.8822 1.33761 15.6596 0.989082C15.4371 0.640555 15.1196 0.364081 14.7452 0.192768C14.3708 0.0214579 13.9553 -0.0374295 13.5486 0.0231593C13.1419 0.0837482 12.7611 0.261246 12.4518 0.534396L0.731413 10.8749C0.50169 11.0772 0.317573 11.3268 0.191421 11.6068C0.0652687 11.8869 1.1813e-06 12.1908 1.22163e-06 12.4984C1.26196e-06 12.8059 0.0652689 13.1099 0.191421 13.3899C0.317573 13.67 0.50169 13.9195 0.731413 14.1219L0.729273 14.1219Z" fill="#FFFBEB"/>
</svg>
